<?xml version="1.0" encoding="iso-8859-1"?>
<!-- Generator: Adobe Illustrator 19.0.0, SVG Export Plug-In . SVG Version: 6.00 Build 0)  -->
<svg version="1.1" id="Capa_1" xmlns="http://www.w3.org/2000/svg" xmlns:xlink="http://www.w3.org/1999/xlink" x="0px" y="0px"
	 viewBox="0 0 511.999 511.999" style="enable-background:new 0 0 511.999 511.999;" xml:space="preserve">
<path style="fill:#FF97A4;" d="M472.91,198.683H39.089c-4.437,0-8.034,3.597-8.034,8.034v297.248c0,4.437,3.597,8.034,8.034,8.034
	H472.91c4.437,0,8.034-3.597,8.034-8.034V206.717C480.944,202.28,477.347,198.683,472.91,198.683z"/>
<path style="fill:#FF7D8D;" d="M472.91,198.683H39.089c-4.437,0-8.034,3.597-8.034,8.034v297.248c0,4.437,3.597,8.034,8.034,8.034
	H56.16V246.886c0-8.874,7.193-16.067,16.067-16.067h408.716v-24.101C480.944,202.28,477.347,198.683,472.91,198.683z"/>
<g>
	<circle style="fill:#FE5578;" cx="280.106" cy="246.886" r="16.067"/>
	<circle style="fill:#FE5578;" cx="376.511" cy="246.886" r="16.067"/>
	<path style="fill:#FE5578;" d="M456.843,246.886c0,8.873,7.194,16.067,16.067,16.067c2.93,0,5.669-0.796,8.034-2.167v-27.801
		c-2.365-1.371-5.103-2.167-8.034-2.167C464.037,230.818,456.843,238.012,456.843,246.886z"/>
	<circle style="fill:#FE5578;" cx="183.701" cy="246.886" r="16.067"/>
	<circle style="fill:#FE5578;" cx="87.286" cy="246.886" r="16.067"/>
	<circle style="fill:#FE5578;" cx="280.106" cy="407.56" r="16.067"/>
</g>
<circle style="fill:#DA6C84;" cx="376.511" cy="407.56" r="16.067"/>
<g>
	<path style="fill:#FE5578;" d="M472.91,391.493c-8.873,0-16.067,7.194-16.067,16.067s7.194,16.067,16.067,16.067
		c2.93,0,5.669-0.796,8.034-2.167V393.66C478.579,392.29,475.841,391.493,472.91,391.493z"/>
	<circle style="fill:#FE5578;" cx="183.701" cy="407.56" r="16.067"/>
	<circle style="fill:#FE5578;" cx="87.286" cy="407.56" r="16.067"/>
	<circle style="fill:#FE5578;" cx="231.903" cy="487.898" r="16.067"/>
	<circle style="fill:#FE5578;" cx="328.308" cy="487.898" r="16.067"/>
	<circle style="fill:#FE5578;" cx="424.713" cy="487.898" r="16.067"/>
	<circle style="fill:#FE5578;" cx="135.498" cy="487.898" r="16.067"/>
</g>
<path style="fill:#FE3F67;" d="M55.156,487.898c0-8.873-7.194-16.067-16.067-16.067c-2.93,0-5.669,0.796-8.034,2.167v27.801
	c2.365,1.371,5.103,2.167,8.034,2.167C47.962,503.965,55.156,496.772,55.156,487.898z"/>
<g>
	<circle style="fill:#FE5578;" cx="231.903" cy="326.219" r="16.067"/>
	<circle style="fill:#FE5578;" cx="328.308" cy="326.219" r="16.067"/>
	<circle style="fill:#FE5578;" cx="424.713" cy="326.219" r="16.067"/>
	<circle style="fill:#FE5578;" cx="135.498" cy="326.219" r="16.067"/>
</g>
<path style="fill:#FE3F67;" d="M55.156,326.219c0-8.873-7.194-16.067-16.067-16.067c-2.93,0-5.669,0.796-8.034,2.167v27.801
	c2.365,1.371,5.103,2.167,8.034,2.167C47.962,342.286,55.156,335.093,55.156,326.219z"/>
<path style="fill:#FE5578;" d="M497.012,126.38H14.987c-4.437,0-8.034,3.597-8.034,8.034v72.304c0,4.437,3.597,8.034,8.034,8.034
	h482.024c4.437,0,8.034-3.597,8.034-8.034v-72.304C505.045,129.977,501.448,126.38,497.012,126.38z"/>
<path style="fill:#FE3F67;" d="M31.055,206.717v-72.304c0-4.437,3.597-8.034,8.034-8.034H14.987c-4.437,0-8.034,3.597-8.034,8.034
	v72.304c0,4.437,3.597,8.034,8.034,8.034h24.101C34.652,214.751,31.055,211.155,31.055,206.717z"/>
<path style="fill:#EFECF1;" d="M347.797,266.178l-72.304,50.613c-2.148,1.503-3.426,3.96-3.426,6.582v156.492
	c0,4.437,3.597,8.034,8.034,8.034h144.607c4.437,0,8.034-3.597,8.034-8.034V323.372c0-2.622-1.279-5.078-3.426-6.582l-72.304-50.613
	C354.245,264.242,350.564,264.242,347.797,266.178z M352.404,335.257c-8.873,0-16.067-7.194-16.067-16.067
	s7.194-16.067,16.067-16.067s16.067,7.194,16.067,16.067S361.278,335.257,352.404,335.257z"/>
<path style="fill:#EBE3EF;" d="M288.134,486.125V329.633c0-2.621,1.279-5.078,3.426-6.582l72.304-50.613
	c0.367-0.256,0.75-0.474,1.145-0.662l-7.999-5.599c-2.767-1.936-6.448-1.936-9.214,0l-72.304,50.613
	c-2.148,1.503-3.426,3.96-3.426,6.582v156.491c0,4.437,3.597,8.034,8.034,8.034h8.237
	C288.209,487.326,288.134,486.735,288.134,486.125z"/>
<path style="fill:#FE5578;" d="M391.393,370.481c-9.205-6.273-23.787-7.574-38.989,5.499c-15.204-13.073-29.784-11.771-38.989-5.499
	c-13.593,9.265-17.809,29.388-9.596,45.814c14.066,28.129,44.746,38.625,46.044,39.058c1.64,0.547,3.442,0.547,5.082,0
	c1.298-0.433,31.978-10.929,46.044-39.059C409.203,399.869,404.986,379.745,391.393,370.481z"/>
<path style="fill:#61E7C4;" d="M406.217,25.22c-6.784-10.943-17.424-18.589-29.959-21.529c-12.534-2.943-25.465-0.824-36.407,5.96
	c-12.346,7.654-42.245,43.345-64.398,70.947c6.335-19.341,12.681-40.667,12.681-48.463C288.134,14.416,273.719,0,255.999,0
	s-32.135,14.416-32.135,32.135c0,7.797,6.347,29.121,12.68,48.463c-22.153-27.602-52.052-63.293-64.396-70.947
	c-10.943-6.783-23.875-8.902-36.408-5.96c-12.535,2.94-23.174,10.586-29.958,21.529c-6.785,10.943-8.901,23.872-5.961,36.408
	c2.941,12.535,10.587,23.174,21.529,29.959c19.49,12.083,121.032,32.273,133.006,34.624c0.018,0.004,0.036,0.007,0.053,0.011
	c0.012,0.002,0.028,0.005,0.04,0.008c0.095,0.019,0.191,0.027,0.286,0.042c0.019,0.003,0.039,0.006,0.058,0.009
	c0.088,0.013,0.176,0.03,0.265,0.04c0.049,0.006,0.096,0.014,0.146,0.019c0.26,0.026,0.52,0.039,0.778,0.04
	c0.004,0,0.008,0.001,0.012,0.001c0.001,0,0.001,0,0.002,0c0.001,0,0.001,0,0.002,0c0.002,0,0.005,0,0.008,0h88.361v192.81
	c0,4.437,3.597,8.034,8.034,8.034c4.437,0,8.034-3.597,8.034-8.034V118.348c0-4.437-3.597-8.034-8.034-8.034H330.73
	c26.146-6.319,51.211-13.33,59.914-18.726c10.943-6.783,18.59-17.424,21.53-29.959C415.118,49.093,413.002,36.163,406.217,25.22z
	 M256,16.066c8.859,0,16.067,7.208,16.067,16.067c0,6.228-7.947,31.962-16.067,55.935c-8.12-23.973-16.067-49.707-16.067-55.935
	C239.932,23.275,247.14,16.066,256,16.066z M129.819,77.93c-11.133-6.902-17.079-20.28-14.68-33.181
	c0.728-3.915,2.201-7.679,4.3-11.063c6.729-10.857,19.879-16.853,32.488-14.8c4.159,0.677,8.173,2.2,11.754,4.42
	c10.997,6.819,45.658,48.53,72.669,82.86C193.591,97.241,140.819,84.75,129.819,77.93z M396.534,57.958
	c-1.96,8.357-7.058,15.45-14.354,19.973c-10.996,6.818-63.771,19.31-106.532,28.235c27.011-34.33,61.672-76.041,72.67-82.86
	c11.607-7.196,26.979-6.159,37.481,2.586C395.078,33.618,399.29,46.21,396.534,57.958z"/>
<g>
</g>
<g>
</g>
<g>
</g>
<g>
</g>
<g>
</g>
<g>
</g>
<g>
</g>
<g>
</g>
<g>
</g>
<g>
</g>
<g>
</g>
<g>
</g>
<g>
</g>
<g>
</g>
<g>
</g>
</svg>
