<svg xmlns="http://www.w3.org/2000/svg" viewBox="0 0 10.73 10.73"><defs><style>.cls-1{fill:#231815;}</style></defs><title>アセット 1</title><g id="レイヤー_2" data-name="レイヤー 2"><g id="圖層_1" data-name="圖層 1"><path class="cls-1" d="M2.49,2.77a1.56,1.56,0,0,1-.81-.12c-.26-.17-.26-.48-.26-.76V1.52a.25.25,0,0,1,.25-.25.25.25,0,0,1,.25.25v.37c0,.24,0,.32,0,.34a2.1,2.1,0,0,0,.61,0H4.19a.25.25,0,0,1,0,.5H2.49Z"/><path class="cls-1" d="M5,4h-4a.25.25,0,0,1-.25-.25.25.25,0,0,1,.25-.25H5a.25.25,0,0,1,.25.25A.25.25,0,0,1,5,4Z"/><path class="cls-1" d="M4.16,5.45H1.81a.25.25,0,0,1-.25-.25A.25.25,0,0,1,1.81,5H4.16a.25.25,0,0,1,.25.25A.25.25,0,0,1,4.16,5.45Z"/><path class="cls-1" d="M4.16,6.73H1.81a.25.25,0,0,1-.25-.25.25.25,0,0,1,.25-.25H4.16a.25.25,0,0,1,.25.25A.25.25,0,0,1,4.16,6.73Z"/><path class="cls-1" d="M4.4,9.61H1.54a.25.25,0,0,1-.25-.25V7.81a.25.25,0,0,1,.25-.25H4.4a.25.25,0,0,1,.25.25V9.36A.25.25,0,0,1,4.4,9.61Zm-2.61-.5H4.15v-1H1.79Z"/><path class="cls-1" d="M8.19,2.07H5.91a.25.25,0,0,1-.25-.25.25.25,0,0,1,.25-.25H8.19a.25.25,0,0,1,.25.25A.25.25,0,0,1,8.19,2.07Z"/><path class="cls-1" d="M8.64,5.25H6.81A.25.25,0,0,1,6.56,5a.25.25,0,0,1,.25-.25H8.64c.07,0,.14-.09.19-.18a3.1,3.1,0,0,0,0-2.64.25.25,0,1,1,.45-.23,3.56,3.56,0,0,1,0,3.1A.74.74,0,0,1,8.64,5.25Z"/><path class="cls-1" d="M9.24,9.61h-3a.79.79,0,0,1-.73-.53A4.62,4.62,0,0,1,5.7,4.85a.25.25,0,0,1,.41.29A4.12,4.12,0,0,0,6,8.9a.3.3,0,0,0,.27.21h3a.25.25,0,1,1,0,.5Z"/><circle class="cls-1" cx="9.06" cy="8.37" r="0.42"/><path class="cls-1" d="M10,10.73H.73A.73.73,0,0,1,0,10V.73A.73.73,0,0,1,.73,0H10a.73.73,0,0,1,.73.73V10A.73.73,0,0,1,10,10.73ZM.73.25A.49.49,0,0,0,.25.73V10a.48.48,0,0,0,.48.48H10a.47.47,0,0,0,.48-.48V.73A.48.48,0,0,0,10,.25Z"/></g></g></svg>