<?xml version="1.0" encoding="iso-8859-1"?>
<!-- Generator: Adobe Illustrator 19.0.0, SVG Export Plug-In . SVG Version: 6.00 Build 0)  -->
<svg version="1.1" id="Capa_1" xmlns="http://www.w3.org/2000/svg" xmlns:xlink="http://www.w3.org/1999/xlink" x="0px" y="0px"
	 viewBox="0 0 512 512" style="enable-background:new 0 0 512 512;" xml:space="preserve">
<path style="fill:#F8CA4F;" d="M255.999,127.867H154.981c-35.309,0-63.933-28.624-63.933-63.933l0,0
	C91.049,28.624,119.673,0,154.981,0l0,0c55.791,0,101.018,45.227,101.018,101.017V127.867z"/>
<path style="opacity:0.05;enable-background:new    ;" d="M255.999,127.867H154.981c-35.309,0-63.933-28.624-63.933-63.933l0,0
	C91.049,28.624,119.673,0,154.981,0l0,0c55.791,0,101.018,45.227,101.018,101.017V127.867z"/>
<g style="opacity:0.1;">
	<path d="M235.566,135.368c-3.665,0-6.871-2.69-7.413-6.425c-2.398-16.549-21.432-49.159-50.93-67.346
		c-3.525-2.174-4.621-6.794-2.447-10.32s6.793-4.622,10.32-2.447c31.608,19.488,54.666,55.642,57.902,77.961
		c0.594,4.1-2.247,7.904-6.347,8.499C236.287,135.343,235.925,135.368,235.566,135.368z"/>
	<path d="M235.574,135.367c-1.772,0-3.552-0.625-4.98-1.896c-26.998-24.007-65.714-32.656-85.441-32.656
		c-0.14,0-0.278,0.003-0.414,0.001c-4.123,0-7.476-3.33-7.499-7.458c-0.023-4.143,3.316-7.519,7.458-7.542
		c0.13-0.001,0.262-0.001,0.395-0.001c19.079,0,63.004,7.578,95.469,36.447c3.096,2.752,3.374,7.493,0.621,10.588
		C239.699,134.518,237.641,135.367,235.574,135.367z"/>
</g>
<path style="fill:#F8CA4F;" d="M255.999,127.867h101.018c35.309,0,63.933-28.624,63.933-63.933l0,0
	C420.951,28.624,392.327,0,357.018,0l0,0c-55.791,0-101.018,45.227-101.018,101.017V127.867z"/>
<path style="opacity:0.05;enable-background:new    ;" d="M255.999,127.867h101.018c35.309,0,63.933-28.624,63.933-63.933l0,0
	C420.951,28.624,392.327,0,357.018,0l0,0c-55.791,0-101.018,45.227-101.018,101.017V127.867z"/>
<g style="opacity:0.1;">
	<path d="M276.433,135.368c-0.358,0-0.721-0.025-1.086-0.078c-4.1-0.595-6.94-4.399-6.347-8.499
		c3.236-22.319,26.294-58.473,57.902-77.961c3.524-2.175,8.146-1.079,10.32,2.447c2.174,3.526,1.078,8.146-2.447,10.32
		c-29.498,18.187-48.531,50.797-50.93,67.346C283.303,132.678,280.098,135.368,276.433,135.368z"/>
	<path d="M276.426,135.367c-2.067,0-4.126-0.85-5.607-2.517c-2.753-3.095-2.475-7.836,0.621-10.588
		c32.463-28.868,76.388-36.447,95.469-36.447c0.134,0,0.264,0,0.395,0.001c4.142,0.023,7.482,3.399,7.458,7.542
		c-0.023,4.128-3.377,7.458-7.499,7.458c-0.142,0.003-0.275-0.002-0.414-0.001c-19.727,0-58.442,8.647-85.441,32.656
		C279.978,134.742,278.198,135.367,276.426,135.367z"/>
</g>
<path style="fill:#61C6AD;" d="M451.628,214.308H60.372c-10.829,0-19.608-8.779-19.608-19.608v-47.224
	c0-10.829,8.779-19.608,19.608-19.608h391.257c10.829,0,19.608,8.779,19.608,19.608V194.7
	C471.237,205.529,462.458,214.308,451.628,214.308z"/>
<rect x="210.009" y="127.87" style="fill:#F8CA4F;" width="91.98" height="86.44"/>
<path style="fill:#61C6AD;" d="M403.018,512H108.982c-15.416,0-27.912-12.497-27.912-27.912v-269.78h349.862v269.78
	C430.931,499.503,418.434,512,403.018,512z"/>
<g style="opacity:0.4;">
	<circle style="fill:#FFFFFF;" cx="323.4" cy="423.08" r="43.856"/>
	<circle style="fill:#FFFFFF;" cx="150.77" cy="316.33" r="43.856"/>
	<path style="fill:#FFFFFF;" d="M109.915,442.339c-11.048,0-21.134,4.094-28.846,10.837v30.911
		c0,15.416,12.497,27.913,27.912,27.913h36.387c5.28-7.242,8.403-16.156,8.403-25.804
		C153.77,461.975,134.135,442.339,109.915,442.339z"/>
	<path style="fill:#FFFFFF;" d="M403.918,243.968c-24.221,0-43.856,19.635-43.856,43.856s19.635,43.856,43.856,43.856
		c10.193,0,19.566-3.487,27.013-9.321v-69.071C423.484,247.455,414.111,243.968,403.918,243.968z"/>
</g>
<rect x="219.249" y="214.31" style="fill:#F8CA4F;" width="73.5" height="297.69"/>
<rect x="81.07" y="214.31" style="opacity:0.1;enable-background:new    ;" width="349.86" height="41.692"/>
<g>
	<path style="fill:#485458;" d="M179.385,175.836c-4.143,0-7.5-3.357-7.5-7.5v-12.717c0-4.143,3.357-7.5,7.5-7.5s7.5,3.357,7.5,7.5
		v12.717C186.885,172.479,183.527,175.836,179.385,175.836z"/>
	<path style="fill:#485458;" d="M332.614,175.836c-4.143,0-7.5-3.357-7.5-7.5v-12.717c0-4.143,3.357-7.5,7.5-7.5s7.5,3.357,7.5,7.5
		v12.717C340.114,172.479,336.757,175.836,332.614,175.836z"/>
	<path style="fill:#485458;" d="M255.999,185.602c-9.908,0-19.331-4.292-25.854-11.774c-2.721-3.122-2.396-7.86,0.727-10.582
		c3.122-2.721,7.859-2.397,10.582,0.727c3.672,4.213,8.974,6.63,14.545,6.63c5.571,0,10.873-2.417,14.545-6.63
		c2.722-3.123,7.459-3.447,10.582-0.727c3.123,2.722,3.447,7.46,0.726,10.582C275.331,181.311,265.908,185.602,255.999,185.602z"/>
</g>
<g>
</g>
<g>
</g>
<g>
</g>
<g>
</g>
<g>
</g>
<g>
</g>
<g>
</g>
<g>
</g>
<g>
</g>
<g>
</g>
<g>
</g>
<g>
</g>
<g>
</g>
<g>
</g>
<g>
</g>
</svg>
